<mxfile host="app.diagrams.net" agent="Mozilla/5.0 (Windows NT 10.0; Win64; x64) AppleWebKit/537.36 (KHTML, like Gecko) Chrome/139.0.0.0 Safari/537.36" version="28.1.2">
  <diagram name="Page-1" id="EdInMR3Nk4c1A7zBNQy6">
    <mxGraphModel dx="1412" dy="735" grid="1" gridSize="10" guides="1" tooltips="1" connect="1" arrows="1" fold="1" page="1" pageScale="1" pageWidth="1169" pageHeight="827" math="0" shadow="0">
      <root>
        <mxCell id="0" />
        <mxCell id="1" parent="0" />
        <mxCell id="NIFq8IMHLjdgZFf8FOC--1" value="" style="endArrow=classic;html=1;rounded=0;exitX=0;exitY=1;exitDx=0;exitDy=0;endSize=14;" parent="1" source="NIFq8IMHLjdgZFf8FOC--11" edge="1">
          <mxGeometry width="50" height="50" relative="1" as="geometry">
            <mxPoint x="400.8799999999999" y="449.04" as="sourcePoint" />
            <mxPoint x="430" y="130" as="targetPoint" />
          </mxGeometry>
        </mxCell>
        <mxCell id="NIFq8IMHLjdgZFf8FOC--16" value="Manage Closely" style="whiteSpace=wrap;html=1;aspect=fixed;strokeColor=none;fillColor=#dae8fc;container=0;" parent="1" vertex="1">
          <mxGeometry x="590" y="160" width="160" height="160" as="geometry" />
        </mxCell>
        <mxCell id="NIFq8IMHLjdgZFf8FOC--4" value="Keep Informed" style="whiteSpace=wrap;html=1;aspect=fixed;strokeColor=none;fillColor=#f8cecc;container=0;" parent="1" vertex="1">
          <mxGeometry x="430" y="160" width="160" height="160" as="geometry" />
        </mxCell>
        <mxCell id="NIFq8IMHLjdgZFf8FOC--11" value="Minimal Contact" style="whiteSpace=wrap;html=1;aspect=fixed;fillColor=#fff2cc;strokeColor=none;container=0;" parent="1" vertex="1">
          <mxGeometry x="430" y="320" width="160" height="160" as="geometry" />
        </mxCell>
        <mxCell id="NIFq8IMHLjdgZFf8FOC--5" value="Keep Satisfied" style="whiteSpace=wrap;html=1;aspect=fixed;strokeColor=none;fillColor=#d5e8d4;container=0;align=center;fontColor=#000000;" parent="1" vertex="1">
          <mxGeometry x="590" y="320" width="160" height="160" as="geometry" />
        </mxCell>
        <mxCell id="NIFq8IMHLjdgZFf8FOC--2" value="" style="endArrow=classic;html=1;rounded=0;exitX=0;exitY=1;exitDx=0;exitDy=0;fontSize=16;strokeWidth=1;endSize=14;" parent="1" source="NIFq8IMHLjdgZFf8FOC--11" edge="1">
          <mxGeometry width="50" height="50" relative="1" as="geometry">
            <mxPoint x="639.12" y="490" as="sourcePoint" />
            <mxPoint x="780" y="480" as="targetPoint" />
          </mxGeometry>
        </mxCell>
        <mxCell id="NIFq8IMHLjdgZFf8FOC--20" value="Interest" style="text;html=1;align=center;verticalAlign=middle;resizable=0;points=[];autosize=1;strokeColor=none;fillColor=none;container=0;" parent="1" vertex="1">
          <mxGeometry x="570" y="480" width="60" height="30" as="geometry" />
        </mxCell>
        <mxCell id="NIFq8IMHLjdgZFf8FOC--21" value="Influence" style="text;html=1;align=center;verticalAlign=middle;resizable=0;points=[];autosize=1;strokeColor=none;fillColor=none;container=0;" parent="1" vertex="1">
          <mxGeometry x="350" y="300" width="70" height="30" as="geometry" />
        </mxCell>
        <mxCell id="NIFq8IMHLjdgZFf8FOC--22" value="" style="endArrow=none;dashed=1;html=1;rounded=0;exitX=0;exitY=0;exitDx=0;exitDy=0;entryX=1;entryY=0;entryDx=0;entryDy=0;strokeColor=#FFFFFF;" parent="1" source="NIFq8IMHLjdgZFf8FOC--11" target="NIFq8IMHLjdgZFf8FOC--5" edge="1">
          <mxGeometry width="50" height="50" relative="1" as="geometry">
            <mxPoint x="600" y="360" as="sourcePoint" />
            <mxPoint x="650" y="310" as="targetPoint" />
          </mxGeometry>
        </mxCell>
        <mxCell id="NIFq8IMHLjdgZFf8FOC--25" value="" style="endArrow=none;dashed=1;html=1;rounded=0;exitX=0;exitY=0;exitDx=0;exitDy=0;entryX=0;entryY=1;entryDx=0;entryDy=0;strokeColor=#FFFFFF;" parent="1" source="NIFq8IMHLjdgZFf8FOC--16" target="NIFq8IMHLjdgZFf8FOC--5" edge="1">
          <mxGeometry width="50" height="50" relative="1" as="geometry">
            <mxPoint x="820" y="239.5" as="sourcePoint" />
            <mxPoint x="1140" y="239.5" as="targetPoint" />
          </mxGeometry>
        </mxCell>
        <mxCell id="XvZowP_lBATbWC2pvTFW-1" value="Students" style="text;html=1;align=center;verticalAlign=middle;resizable=0;points=[];autosize=1;strokeColor=none;fillColor=none;" vertex="1" parent="1">
          <mxGeometry x="680" y="318" width="70" height="30" as="geometry" />
        </mxCell>
        <mxCell id="XvZowP_lBATbWC2pvTFW-2" value="University" style="text;html=1;align=center;verticalAlign=middle;resizable=0;points=[];autosize=1;strokeColor=none;fillColor=none;" vertex="1" parent="1">
          <mxGeometry x="680" y="160" width="80" height="30" as="geometry" />
        </mxCell>
        <mxCell id="XvZowP_lBATbWC2pvTFW-3" value="Health Dept" style="text;html=1;align=center;verticalAlign=middle;resizable=0;points=[];autosize=1;strokeColor=none;fillColor=none;" vertex="1" parent="1">
          <mxGeometry x="465" y="290" width="90" height="30" as="geometry" />
        </mxCell>
        <mxCell id="XvZowP_lBATbWC2pvTFW-4" value="Vendors&lt;div&gt;&lt;br&gt;&lt;/div&gt;" style="text;html=1;align=center;verticalAlign=middle;resizable=0;points=[];autosize=1;strokeColor=none;fillColor=none;" vertex="1" parent="1">
          <mxGeometry x="430" y="260" width="70" height="40" as="geometry" />
        </mxCell>
        <mxCell id="XvZowP_lBATbWC2pvTFW-5" value="Admins" style="text;html=1;align=center;verticalAlign=middle;resizable=0;points=[];autosize=1;strokeColor=none;fillColor=none;" vertex="1" parent="1">
          <mxGeometry x="640" y="260" width="60" height="30" as="geometry" />
        </mxCell>
        <mxCell id="XvZowP_lBATbWC2pvTFW-6" value="Project Team" style="text;html=1;align=center;verticalAlign=middle;resizable=0;points=[];autosize=1;strokeColor=none;fillColor=none;" vertex="1" parent="1">
          <mxGeometry x="670" y="180" width="90" height="30" as="geometry" />
        </mxCell>
        <mxCell id="XvZowP_lBATbWC2pvTFW-7" value="Faculties" style="text;html=1;align=center;verticalAlign=middle;resizable=0;points=[];autosize=1;strokeColor=none;fillColor=none;" vertex="1" parent="1">
          <mxGeometry x="590" y="320" width="70" height="30" as="geometry" />
        </mxCell>
      </root>
    </mxGraphModel>
  </diagram>
</mxfile>
